<?xml version="1.0" encoding="UTF-8" standalone="no"?>
<!-- Created with Inkscape (http://www.inkscape.org/) -->

<svg
   width="256"
   height="256"
   viewBox="0 0 67.733332 67.733333"
   version="1.1"
   id="svg1"
   xml:space="preserve"
   sodipodi:docname="favicon.svg"
   inkscape:version="1.4.2 (ebf0e940, 2025-05-08)"
   inkscape:export-filename="favicon.png"
   inkscape:export-xdpi="96"
   inkscape:export-ydpi="96"
   xmlns:inkscape="http://www.inkscape.org/namespaces/inkscape"
   xmlns:sodipodi="http://sodipodi.sourceforge.net/DTD/sodipodi-0.dtd"
   xmlns="http://www.w3.org/2000/svg"
   xmlns:svg="http://www.w3.org/2000/svg"><sodipodi:namedview
     id="namedview1"
     pagecolor="#ffffff"
     bordercolor="#000000"
     borderopacity="0.25"
     inkscape:showpageshadow="2"
     inkscape:pageopacity="0.0"
     inkscape:pagecheckerboard="true"
     inkscape:deskcolor="#d1d1d1"
     inkscape:document-units="mm"
     inkscape:zoom="1.2533489"
     inkscape:cx="203.05598"
     inkscape:cy="227.78972"
     inkscape:window-width="1680"
     inkscape:window-height="1050"
     inkscape:window-x="0"
     inkscape:window-y="0"
     inkscape:window-maximized="0"
     inkscape:current-layer="g17" /><defs
     id="defs1"><clipPath
       clipPathUnits="userSpaceOnUse"
       id="clipPath8077"><path
         inkscape:connector-curvature="0"
         d="m 139.92,738.62 h 3.96 v 6.42 h -3.96 z"
         id="path8079" /></clipPath><clipPath
       clipPathUnits="userSpaceOnUse"
       id="clipPath8165"><path
         inkscape:connector-curvature="0"
         d="m 238.14,738.62 h 3.96 v 6.42 h -3.96 z"
         id="path8167" /></clipPath><clipPath
       clipPathUnits="userSpaceOnUse"
       id="clipPath9173"><path
         inkscape:connector-curvature="0"
         d="m 568.218,1080.472 h 211.783 v 56.055 H 568.218 Z"
         id="path9175" /></clipPath><clipPath
       clipPathUnits="userSpaceOnUse"
       id="clipPath10214"><path
         inkscape:connector-curvature="0"
         d="m 398.661,25.045 h -94.602 v 13.679 h 94.602 V 25.045"
         clip-rule="evenodd"
         id="path10216" /></clipPath><clipPath
       clipPathUnits="userSpaceOnUse"
       id="clipPath10220"><path
         inkscape:connector-curvature="0"
         d="m 304.043,66.215 v -50.36 h 94.638 v 50.36"
         id="path10222" /></clipPath><clipPath
       clipPathUnits="userSpaceOnUse"
       id="clipPath10722"><path
         inkscape:connector-curvature="0"
         d="m 415.03,44.54 h 0.41998 v 0.96005 H 415.03 Z"
         id="path10724" /></clipPath><clipPath
       clipPathUnits="userSpaceOnUse"
       id="clipPath10732"><path
         inkscape:connector-curvature="0"
         d="m 415.03,45.08 h 0.41998 v 1.0199 H 415.03 Z"
         id="path10734" /></clipPath><clipPath
       clipPathUnits="userSpaceOnUse"
       id="clipPath11070"><path
         inkscape:connector-curvature="0"
         d="M 36,84.08701 V 28.854 H 182.205 V 84.08701 H 36"
         id="path11072" /></clipPath><clipPath
       clipPathUnits="userSpaceOnUse"
       id="clipPath11078"><path
         inkscape:connector-curvature="0"
         d="M 36,84.08765 H 182.3569 V 28.73471 H 36 v 55.35294"
         id="path11080" /></clipPath><clipPath
       clipPathUnits="userSpaceOnUse"
       id="clipPath11088"><path
         inkscape:connector-curvature="0"
         d="M 36,84.087646 H 182.35689 V 28.734709 H 36 Z"
         id="path11090" /></clipPath></defs><g
     inkscape:groupmode="layer"
     id="g17"
     inkscape:label="Recycling"
     style="display:inline"
     transform="translate(46.638903,-5.1979449)"><g
       id="g20"
       transform="matrix(0.68182222,0,0,0.68182222,-44.066079,8.513959)"><path
         style="fill:#434343;fill-opacity:1;stroke:#000000;stroke-width:0.265112;stroke-dasharray:none;stroke-opacity:1"
         d="m 86.381228,65.157414 h 1.84011 l 0.29839,0.29839 -0.1492,13.12938 -0.19893,0.49733 h -1.74063 l -0.39786,-0.44759 z"
         id="path12"
         inkscape:label="right wheel" /><path
         style="fill:#434343;fill-opacity:1;stroke:#000000;stroke-width:0.265112;stroke-dasharray:none;stroke-opacity:1"
         d="m 58.89249,65.317344 h -1.84011 l -0.29839,0.29839 0.1492,13.12938 0.19893,0.49733 h 1.74063 l 0.39786,-0.44759 z"
         id="path13"
         inkscape:label="left wheel" /><path
         style="display:inline;fill:#585858;fill-opacity:1;stroke:#000000;stroke-width:0.264583;stroke-opacity:1"
         d="m 56.012272,22.799825 4.073781,60.136789 0.03215,1.12319 c 0,0 0.06071,3.69754 3.29147,3.59185 1.534965,-0.0502 2.398895,-0.0186 2.398895,-0.0186 0,0 0.65603,-0.6059 0.66041,-0.61017 l 12.61706,0.0353 0.77269,0.57033 1.82135,0.0368 c 0,0 3.22637,-0.10069 3.42194,-3.44033 l 0.23917,-4.08425 4.52579,-56.590731 v 0 l 0.77269,-1.361422 1.61898,-1.600584 0.0552,-0.496732 -39.057906,-0.551926 0.05774,0.578506 1.634833,1.353233 z"
         id="path14"
         sodipodi:nodetypes="cccscccccscccccccccc"
         inkscape:label="body" /><path
         style="display:inline;fill:#585858;fill-opacity:1;stroke:#000000;stroke-width:0.265;stroke-dasharray:none;stroke-opacity:1"
         d="m 53.25594,19.539338 39.057908,0.551926 1.26408,-0.02876 c 0,0 0.42691,-0.164195 0.45975,-0.492583 0.0328,-0.32839 0.22987,-4.4661 0.22987,-4.4661 v -0.459745 l -1.90466,-3.21822 0.13584,1.628008 c 0,0 0.16202,0.898477 -0.58916,1.045768 -0.75119,0.147291 -2.3272,0.206208 -2.3272,0.206208 h -3.26987 L 56.009822,13.832574 c 0,0 -1.028735,-0.141896 -1.986521,-0.461158 -0.957787,-0.319262 -0.354738,-0.496631 -0.354738,-1.312521 0,-0.815893 0.04677,-0.495363 0.04677,-0.495363 l -2.299335,2.562116 -0.02627,4.296476 c 0,0 -0.02627,0.683231 0.604399,0.670092 0.630674,-0.01315 1.261819,0.447122 1.261819,0.447122 z"
         id="path15"
         inkscape:label="lip" /><path
         style="display:inline;fill:#585858;fill-opacity:1;stroke:#000000;stroke-width:0.264583;stroke-opacity:1"
         d="m 53.715331,11.563532 1.565034,-3.11938 0.881195,-0.998685 v 0 l 0.427853,-0.969315 0.600207,-1.145553 32.457328,0.146865 0.20562,0.264359 0.38185,0.822449 0.20561,0.499343 0.21941,1.210257 1.04365,1.433327 0.3231,0.616836 0.33671,1.101821 0.13584,1.628007 c 0,0 0.13471,0.946984 -0.58916,1.045769 -0.72387,0.09878 -2.3272,0.206208 -2.3272,0.206208 h -3.26987 L 56.598599,13.841769 c -1.964977,-0.0033 -2.971341,-0.04184 -3.137633,-0.267432 -0.30708,-0.416586 0.254365,-2.010805 0.254365,-2.010805 z"
         id="path16"
         inkscape:label="lid"
         sodipodi:nodetypes="cccccccccccccccscccsc" /><path
         style="fill:#414141;fill-opacity:1;stroke:#000000;stroke-width:0.265112;stroke-dasharray:none;stroke-opacity:1"
         d="m 61.649878,9.629004 22.71035,0.217948 -0.39231,1.961547 -21.751371,-0.04359 z"
         id="path17"
         inkscape:label="handle" /></g></g><g
     inkscape:groupmode="layer"
     id="g11"
     inkscape:label="Non Recycling"
     transform="translate(-2.5736234,-5.1979449)"
     style="display:inline"><g
       id="g19"
       transform="matrix(0.64769912,0,0,0.64769912,2.1732964,9.8530822)"><path
         style="fill:#434343;fill-opacity:1;stroke:#000000;stroke-width:0.265112;stroke-dasharray:none;stroke-opacity:1"
         d="m 37.697741,65.157414 h 1.840101 l 0.298387,0.29839 -0.1492,13.12938 -0.198927,0.49733 h -1.740621 l -0.397857,-0.44759 z"
         id="path6"
         inkscape:label="right wheel" /><path
         style="fill:#434343;fill-opacity:1;stroke:#000000;stroke-width:0.265112;stroke-dasharray:none;stroke-opacity:1"
         d="M 10.209126,65.317344 H 8.3690157 l -0.29839,0.29839 0.1492,13.12938 0.19893,0.49733 h 1.7406303 l 0.39786,-0.44759 z"
         id="path7"
         inkscape:label="left wheel" /><path
         style="display:inline;fill:#585858;fill-opacity:1;stroke:#000000;stroke-width:0.264583;stroke-opacity:1"
         d="m 7.3289077,22.799825 4.0737813,60.136789 0.03215,1.12319 c 0,0 0.06071,3.69754 3.29147,3.59185 1.534965,-0.0502 2.398889,-0.0186 2.398889,-0.0186 0,0 0.656027,-0.6059 0.660407,-0.61017 l 12.616988,0.0353 0.772684,0.57033 1.821341,0.0368 c 0,0 3.226352,-0.10069 3.421922,-3.44033 l 0.239167,-4.08425 4.525766,-56.590731 v 0 l 0.772684,-1.361422 1.618971,-1.600584 0.0552,-0.496732 -39.0577503,-0.551926 0.05774,0.578506 1.634833,1.353233 z"
         id="path8"
         sodipodi:nodetypes="cccscccccscccccccccc"
         inkscape:label="body" /><path
         style="display:inline;fill:#585858;fill-opacity:1;stroke:#000000;stroke-width:0.265;stroke-dasharray:none;stroke-opacity:1"
         d="m 4.5725757,19.539338 39.0577523,0.551926 1.264074,-0.02876 c 0,0 0.426907,-0.164195 0.459747,-0.492583 0.0328,-0.32839 0.229867,-4.4661 0.229867,-4.4661 v -0.459745 l -1.904648,-3.21822 0.13584,1.628008 c 0,0 0.162017,0.898477 -0.589157,1.045768 -0.751187,0.147291 -2.327188,0.206208 -2.327188,0.206208 H 37.629011 L 7.3264577,13.832574 c 0,0 -1.028735,-0.141896 -1.986521,-0.461158 -0.957787,-0.319262 -0.354738,-0.496631 -0.354738,-1.312521 0,-0.815893 0.04677,-0.495363 0.04677,-0.495363 l -2.299335,2.562116 -0.02627,4.296476 c 0,0 -0.02627,0.683231 0.604399,0.670092 0.630674,-0.01315 1.261819,0.447122 1.261819,0.447122 z"
         id="path9"
         inkscape:label="lip" /><path
         style="display:inline;fill:#765198;fill-opacity:1;stroke:#000000;stroke-width:0.264583;stroke-opacity:1"
         d="m 5.0319667,11.563532 1.565034,-3.11938 0.881195,-0.998685 v 0 l 0.427853,-0.969315 0.600207,-1.145553 32.4571873,0.146865 0.20562,0.264359 0.381847,0.822449 0.205607,0.499343 0.21941,1.210257 1.043644,1.433327 0.323097,0.616836 0.33671,1.101821 0.13584,1.628007 c 0,0 0.134707,0.946984 -0.589157,1.045769 -0.723867,0.09878 -2.327188,0.206208 -2.327188,0.206208 H 37.629021 L 7.9152347,13.841769 c -1.964977,-0.0033 -2.971341,-0.04184 -3.137633,-0.267432 -0.30708,-0.416586 0.254365,-2.010805 0.254365,-2.010805 z"
         id="path10"
         inkscape:label="lid"
         sodipodi:nodetypes="cccccccccccccccscccsc" /><path
         style="fill:#553a6f;fill-opacity:1;stroke:#000000;stroke-width:0.265112;stroke-dasharray:none;stroke-opacity:1"
         d="m 12.966514,9.629004 22.710239,0.217948 -0.392307,1.961547 -21.751263,-0.04359 z"
         id="path11"
         inkscape:label="handle" /></g></g><g
     inkscape:groupmode="layer"
     id="layer2"
     inkscape:label="Green Bin"
     style="display:inline"
     transform="translate(-2.5736234,-5.1979449)"><g
       id="g18"
       transform="translate(-0.03419496,-0.86420496)"><path
         style="fill:#434343;fill-opacity:1;stroke:#000000;stroke-width:0.210749;stroke-dasharray:none;stroke-opacity:1"
         d="m 47.248138,54.762186 h 1.462786 l 0.237203,0.237203 -0.118605,10.437131 -0.158139,0.39535 h -1.383704 l -0.316277,-0.355809 z"
         id="path5"
         inkscape:label="right wheel" /><path
         style="fill:#434343;fill-opacity:1;stroke:#000000;stroke-width:0.210749;stroke-dasharray:none;stroke-opacity:1"
         d="m 25.396112,54.889321 h -1.462786 l -0.237203,0.237204 0.118605,10.437131 0.158139,0.39535 h 1.383704 l 0.316277,-0.35581 z"
         id="path5-3"
         inkscape:label="left wheel" /><path
         style="display:inline;fill:#78bb6a;fill-opacity:1;stroke:#000000;stroke-width:0.210329;stroke-opacity:1"
         d="m 23.106498,21.090245 3.23843,47.805421 0.02556,0.892874 c 0,0 0.04826,2.939339 2.616536,2.855322 1.220213,-0.03991 1.906989,-0.01479 1.906989,-0.01479 0,0 0.521508,-0.481657 0.52499,-0.485052 l 10.029865,0.02806 0.614245,0.453381 1.447873,0.02925 c 0,0 2.564786,-0.08004 2.720253,-2.734872 l 0.190127,-3.246753 3.597753,-44.986501 v 0 l 0.614245,-1.082255 1.287,-1.272375 0.04388,-0.394875 -31.048875,-0.438751 0.0459,0.459881 1.299602,1.075745 z"
         id="path1"
         sodipodi:nodetypes="cccscccccscccccccccc"
         inkscape:label="body" /><path
         style="display:inline;fill:#78bb6a;fill-opacity:1;stroke:#000000;stroke-width:0.21066;stroke-dasharray:none;stroke-opacity:1"
         d="m 20.915366,18.498339 31.048877,0.43875 1.004874,-0.02286 c 0,0 0.339369,-0.130526 0.365475,-0.391577 0.02607,-0.261051 0.182734,-3.550302 0.182734,-3.550302 v -0.365472 l -1.514099,-2.558307 0.107985,1.294176 c 0,0 0.128797,0.71424 -0.468349,0.831328 -0.597155,0.117088 -1.849996,0.163924 -1.849996,0.163924 H 47.193502 L 23.10455,13.961779 c 0,0 -0.817787,-0.1128 -1.579174,-0.366595 -0.761388,-0.253796 -0.281997,-0.394794 -0.281997,-1.043382 0,-0.64859 0.03718,-0.393786 0.03718,-0.393786 l -1.827844,2.03674 -0.02088,3.415461 c 0,0 -0.02088,0.543131 0.480464,0.532686 0.501351,-0.01045 1.003076,0.355438 1.003076,0.355438 z"
         id="path2"
         inkscape:label="lip" /><path
         style="display:inline;fill:#ece581;fill-opacity:1;stroke:#000000;stroke-width:0.210329;stroke-opacity:1"
         d="M 21.280557,12.158014 22.524672,9.67828 23.225173,8.8843806 v 0 l 0.34012,-0.7705521 0.477131,-0.9106513 25.801781,0.1167496 0.163456,0.2101507 0.30355,0.6538015 0.163449,0.3969504 0.174418,0.9620874 0.829645,1.1394152 0.256846,0.490351 0.267666,0.875886 0.107985,1.294176 c 0,0 0.107087,0.7528 -0.468349,0.831328 -0.575437,0.07853 -1.849996,0.163924 -1.849996,0.163924 H 47.19351 L 23.572595,13.969086 c -1.562048,-0.0026 -2.362051,-0.03326 -2.494244,-0.212593 -0.244112,-0.331163 0.202206,-1.598479 0.202206,-1.598479 z"
         id="path3"
         inkscape:label="lid"
         sodipodi:nodetypes="cccccccccccccccscccsc" /><path
         style="fill:#b1ac62;fill-opacity:1;stroke:#000000;stroke-width:0.210749;stroke-dasharray:none;stroke-opacity:1"
         d="m 27.588083,10.620172 18.053472,0.173256 -0.311865,1.559321 -17.291137,-0.03465 z"
         id="path4"
         inkscape:label="handle" /></g></g></svg>
