<?xml version="1.0" encoding="UTF-8" standalone="no"?>
<!-- Created with Inkscape (http://www.inkscape.org/) -->

<svg
   width="533.06061"
   height="312.18787"
   viewBox="0 0 141.03895 82.599706"
   version="1.1"
   id="svg1"
   xml:space="preserve"
   inkscape:version="1.4.2 (ebf0e940, 2025-05-08)"
   sodipodi:docname="logo.svg"
   xmlns:inkscape="http://www.inkscape.org/namespaces/inkscape"
   xmlns:sodipodi="http://sodipodi.sourceforge.net/DTD/sodipodi-0.dtd"
   xmlns="http://www.w3.org/2000/svg"
   xmlns:svg="http://www.w3.org/2000/svg"><sodipodi:namedview
     id="namedview1"
     pagecolor="#ffffff"
     bordercolor="#000000"
     borderopacity="0.25"
     inkscape:showpageshadow="2"
     inkscape:pageopacity="0.0"
     inkscape:pagecheckerboard="true"
     inkscape:deskcolor="#d1d1d1"
     inkscape:document-units="mm"
     inkscape:zoom="0.44818205"
     inkscape:cx="-548.8841"
     inkscape:cy="389.35072"
     inkscape:window-width="1680"
     inkscape:window-height="1050"
     inkscape:window-x="0"
     inkscape:window-y="0"
     inkscape:window-maximized="0"
     inkscape:current-layer="svg1" /><defs
     id="defs1"><clipPath
       clipPathUnits="userSpaceOnUse"
       id="clipPath8077"><path
         inkscape:connector-curvature="0"
         d="m 139.92,738.62 3.96,0 0,6.42 -3.96,0 0,-6.42 z"
         id="path8079" /></clipPath><clipPath
       clipPathUnits="userSpaceOnUse"
       id="clipPath8165"><path
         inkscape:connector-curvature="0"
         d="m 238.14,738.62 3.96,0 0,6.42 -3.96,0 0,-6.42 z"
         id="path8167" /></clipPath><clipPath
       clipPathUnits="userSpaceOnUse"
       id="clipPath9173"><path
         inkscape:connector-curvature="0"
         d="m 568.218,1080.472 211.783,0 0,56.055 -211.783,0 0,-56.055 z"
         id="path9175" /></clipPath><clipPath
       clipPathUnits="userSpaceOnUse"
       id="clipPath10214"><path
         inkscape:connector-curvature="0"
         d="m 398.661,25.045 -94.602,0 0,13.679 94.602,0 0,-13.679"
         clip-rule="evenodd"
         id="path10216" /></clipPath><clipPath
       clipPathUnits="userSpaceOnUse"
       id="clipPath10220"><path
         inkscape:connector-curvature="0"
         d="m 304.043,66.215 0,-50.36 94.638,0 0,50.36"
         id="path10222" /></clipPath><clipPath
       clipPathUnits="userSpaceOnUse"
       id="clipPath10722"><path
         inkscape:connector-curvature="0"
         d="m 415.03,44.54 0.41998,0 0,0.96005 -0.41998,0 0,-0.96005 z"
         id="path10724" /></clipPath><clipPath
       clipPathUnits="userSpaceOnUse"
       id="clipPath10732"><path
         inkscape:connector-curvature="0"
         d="m 415.03,45.08 0.41998,0 0,1.0199 -0.41998,0 0,-1.0199 z"
         id="path10734" /></clipPath><clipPath
       clipPathUnits="userSpaceOnUse"
       id="clipPath11070"><path
         inkscape:connector-curvature="0"
         d="m 36,84.08701 0,-55.23301 146.205,0 0,55.23301 -146.205,0"
         id="path11072" /></clipPath><clipPath
       clipPathUnits="userSpaceOnUse"
       id="clipPath11078"><path
         inkscape:connector-curvature="0"
         d="m 36,84.08765 146.3569,0 0,-55.35294 -146.3569,0 0,55.35294"
         id="path11080" /></clipPath><clipPath
       clipPathUnits="userSpaceOnUse"
       id="clipPath11088"><path
         inkscape:connector-curvature="0"
         d="m 36,84.087646 146.35689,0 0,-55.352937 -146.35689,0 0,55.352937 z"
         id="path11090" /></clipPath></defs><g
     inkscape:groupmode="layer"
     id="layer2"
     inkscape:label="Green Bin"
     style="display:inline"
     transform="translate(-2.5736234,-5.1979449)"><path
       style="fill:#434343;fill-opacity:1;stroke:#000000;stroke-width:0.265112;stroke-dasharray:none;stroke-opacity:1"
       d="m 86.381228,65.157414 h 1.84011 l 0.29839,0.29839 -0.1492,13.12938 -0.19893,0.49733 h -1.74063 l -0.39786,-0.44759 z"
       id="path5"
       inkscape:label="right wheel" /><path
       style="fill:#434343;fill-opacity:1;stroke:#000000;stroke-width:0.265112;stroke-dasharray:none;stroke-opacity:1"
       d="m 58.89249,65.317344 h -1.84011 l -0.29839,0.29839 0.1492,13.12938 0.19893,0.49733 h 1.74063 l 0.39786,-0.44759 z"
       id="path5-3"
       inkscape:label="left wheel" /><path
       style="display:inline;fill:#78bb6a;fill-opacity:1;stroke:#000000;stroke-width:0.264583;stroke-opacity:1"
       d="m 56.012272,22.799825 4.073781,60.136789 0.03215,1.12319 c 0,0 0.06071,3.69754 3.29147,3.59185 1.534965,-0.0502 2.398895,-0.0186 2.398895,-0.0186 0,0 0.65603,-0.6059 0.66041,-0.61017 l 12.61706,0.0353 0.77269,0.57033 1.82135,0.0368 c 0,0 3.22637,-0.10069 3.42194,-3.44033 l 0.23917,-4.08425 4.52579,-56.590731 v 0 l 0.77269,-1.361422 1.61898,-1.600584 0.0552,-0.496732 -39.057906,-0.551926 0.05774,0.578506 1.634833,1.353233 z"
       id="path1"
       sodipodi:nodetypes="cccscccccscccccccccc"
       inkscape:label="body" /><path
       style="display:inline;fill:#78bb6a;fill-opacity:1;stroke:#000000;stroke-width:0.265;stroke-dasharray:none;stroke-opacity:1"
       d="m 53.25594,19.539338 39.057908,0.551926 1.26408,-0.02876 c 0,0 0.42691,-0.164195 0.45975,-0.492583 0.0328,-0.32839 0.22987,-4.4661 0.22987,-4.4661 v -0.459745 l -1.90466,-3.21822 0.13584,1.628008 c 0,0 0.16202,0.898477 -0.58916,1.045768 -0.75119,0.147291 -2.3272,0.206208 -2.3272,0.206208 h -3.26987 L 56.009822,13.832574 c 0,0 -1.028735,-0.141896 -1.986521,-0.461158 -0.957787,-0.319262 -0.354738,-0.496631 -0.354738,-1.312521 0,-0.815893 0.04677,-0.495363 0.04677,-0.495363 l -2.299335,2.562116 -0.02627,4.296476 c 0,0 -0.02627,0.683231 0.604399,0.670092 0.630674,-0.01315 1.261819,0.447122 1.261819,0.447122 z"
       id="path2"
       inkscape:label="lip" /><path
       style="display:inline;fill:#ece581;fill-opacity:1;stroke:#000000;stroke-width:0.264583;stroke-opacity:1"
       d="m 53.715331,11.563532 1.565034,-3.11938 0.881195,-0.998685 v 0 l 0.427853,-0.969315 0.600207,-1.145553 32.457328,0.146865 0.20562,0.264359 0.38185,0.822449 0.20561,0.499343 0.21941,1.210257 1.04365,1.433327 0.3231,0.616836 0.33671,1.101821 0.13584,1.628007 c 0,0 0.13471,0.946984 -0.58916,1.045769 -0.72387,0.09878 -2.3272,0.206208 -2.3272,0.206208 h -3.26987 L 56.598599,13.841769 c -1.964977,-0.0033 -2.971341,-0.04184 -3.137633,-0.267432 -0.30708,-0.416586 0.254365,-2.010805 0.254365,-2.010805 z"
       id="path3"
       inkscape:label="lid"
       sodipodi:nodetypes="cccccccccccccccscccsc" /><path
       style="fill:#b1ac62;fill-opacity:1;stroke:#000000;stroke-width:0.265112;stroke-dasharray:none;stroke-opacity:1"
       d="m 61.649878,9.629004 22.71035,0.217948 -0.39231,1.961547 -21.751371,-0.04359 z"
       id="path4"
       inkscape:label="handle" /></g><g
     inkscape:groupmode="layer"
     id="g17"
     inkscape:label="Recycling"
     style="display:inline"
     transform="translate(46.638902,-5.1979449)"><path
       style="fill:#434343;fill-opacity:1;stroke:#000000;stroke-width:0.265112;stroke-dasharray:none;stroke-opacity:1"
       d="m 86.381228,65.157414 h 1.84011 l 0.29839,0.29839 -0.1492,13.12938 -0.19893,0.49733 h -1.74063 l -0.39786,-0.44759 z"
       id="path12"
       inkscape:label="right wheel" /><path
       style="fill:#434343;fill-opacity:1;stroke:#000000;stroke-width:0.265112;stroke-dasharray:none;stroke-opacity:1"
       d="m 58.89249,65.317344 h -1.84011 l -0.29839,0.29839 0.1492,13.12938 0.19893,0.49733 h 1.74063 l 0.39786,-0.44759 z"
       id="path13"
       inkscape:label="left wheel" /><path
       style="display:inline;fill:#585858;fill-opacity:1;stroke:#000000;stroke-width:0.264583;stroke-opacity:1"
       d="m 56.012272,22.799825 4.073781,60.136789 0.03215,1.12319 c 0,0 0.06071,3.69754 3.29147,3.59185 1.534965,-0.0502 2.398895,-0.0186 2.398895,-0.0186 0,0 0.65603,-0.6059 0.66041,-0.61017 l 12.61706,0.0353 0.77269,0.57033 1.82135,0.0368 c 0,0 3.22637,-0.10069 3.42194,-3.44033 l 0.23917,-4.08425 4.52579,-56.590731 v 0 l 0.77269,-1.361422 1.61898,-1.600584 0.0552,-0.496732 -39.057906,-0.551926 0.05774,0.578506 1.634833,1.353233 z"
       id="path14"
       sodipodi:nodetypes="cccscccccscccccccccc"
       inkscape:label="body" /><path
       style="display:inline;fill:#585858;fill-opacity:1;stroke:#000000;stroke-width:0.265;stroke-dasharray:none;stroke-opacity:1"
       d="m 53.25594,19.539338 39.057908,0.551926 1.26408,-0.02876 c 0,0 0.42691,-0.164195 0.45975,-0.492583 0.0328,-0.32839 0.22987,-4.4661 0.22987,-4.4661 v -0.459745 l -1.90466,-3.21822 0.13584,1.628008 c 0,0 0.16202,0.898477 -0.58916,1.045768 -0.75119,0.147291 -2.3272,0.206208 -2.3272,0.206208 h -3.26987 L 56.009822,13.832574 c 0,0 -1.028735,-0.141896 -1.986521,-0.461158 -0.957787,-0.319262 -0.354738,-0.496631 -0.354738,-1.312521 0,-0.815893 0.04677,-0.495363 0.04677,-0.495363 l -2.299335,2.562116 -0.02627,4.296476 c 0,0 -0.02627,0.683231 0.604399,0.670092 0.630674,-0.01315 1.261819,0.447122 1.261819,0.447122 z"
       id="path15"
       inkscape:label="lip" /><path
       style="display:inline;fill:#585858;fill-opacity:1;stroke:#000000;stroke-width:0.264583;stroke-opacity:1"
       d="m 53.715331,11.563532 1.565034,-3.11938 0.881195,-0.998685 v 0 l 0.427853,-0.969315 0.600207,-1.145553 32.457328,0.146865 0.20562,0.264359 0.38185,0.822449 0.20561,0.499343 0.21941,1.210257 1.04365,1.433327 0.3231,0.616836 0.33671,1.101821 0.13584,1.628007 c 0,0 0.13471,0.946984 -0.58916,1.045769 -0.72387,0.09878 -2.3272,0.206208 -2.3272,0.206208 h -3.26987 L 56.598599,13.841769 c -1.964977,-0.0033 -2.971341,-0.04184 -3.137633,-0.267432 -0.30708,-0.416586 0.254365,-2.010805 0.254365,-2.010805 z"
       id="path16"
       inkscape:label="lid"
       sodipodi:nodetypes="cccccccccccccccscccsc" /><path
       style="fill:#414141;fill-opacity:1;stroke:#000000;stroke-width:0.265112;stroke-dasharray:none;stroke-opacity:1"
       d="m 61.649878,9.629004 22.71035,0.217948 -0.39231,1.961547 -21.751371,-0.04359 z"
       id="path17"
       inkscape:label="handle" /></g><g
     inkscape:groupmode="layer"
     id="g11"
     inkscape:label="Non Recycling"
     transform="translate(-2.5736234,-5.1979449)"><path
       style="fill:#434343;fill-opacity:1;stroke:#000000;stroke-width:0.265112;stroke-dasharray:none;stroke-opacity:1"
       d="m 37.697741,65.157414 h 1.840101 l 0.298387,0.29839 -0.1492,13.12938 -0.198927,0.49733 h -1.740621 l -0.397857,-0.44759 z"
       id="path6"
       inkscape:label="right wheel" /><path
       style="fill:#434343;fill-opacity:1;stroke:#000000;stroke-width:0.265112;stroke-dasharray:none;stroke-opacity:1"
       d="M 10.209126,65.317344 H 8.3690157 l -0.29839,0.29839 0.1492,13.12938 0.19893,0.49733 h 1.7406303 l 0.39786,-0.44759 z"
       id="path7"
       inkscape:label="left wheel" /><path
       style="display:inline;fill:#585858;fill-opacity:1;stroke:#000000;stroke-width:0.264583;stroke-opacity:1"
       d="m 7.3289077,22.799825 4.0737813,60.136789 0.03215,1.12319 c 0,0 0.06071,3.69754 3.29147,3.59185 1.534965,-0.0502 2.398889,-0.0186 2.398889,-0.0186 0,0 0.656027,-0.6059 0.660407,-0.61017 l 12.616988,0.0353 0.772684,0.57033 1.821341,0.0368 c 0,0 3.226352,-0.10069 3.421922,-3.44033 l 0.239167,-4.08425 4.525766,-56.590731 v 0 l 0.772684,-1.361422 1.618971,-1.600584 0.0552,-0.496732 -39.0577503,-0.551926 0.05774,0.578506 1.634833,1.353233 z"
       id="path8"
       sodipodi:nodetypes="cccscccccscccccccccc"
       inkscape:label="body" /><path
       style="display:inline;fill:#585858;fill-opacity:1;stroke:#000000;stroke-width:0.265;stroke-dasharray:none;stroke-opacity:1"
       d="m 4.5725757,19.539338 39.0577523,0.551926 1.264074,-0.02876 c 0,0 0.426907,-0.164195 0.459747,-0.492583 0.0328,-0.32839 0.229867,-4.4661 0.229867,-4.4661 v -0.459745 l -1.904648,-3.21822 0.13584,1.628008 c 0,0 0.162017,0.898477 -0.589157,1.045768 -0.751187,0.147291 -2.327188,0.206208 -2.327188,0.206208 H 37.629011 L 7.3264577,13.832574 c 0,0 -1.028735,-0.141896 -1.986521,-0.461158 -0.957787,-0.319262 -0.354738,-0.496631 -0.354738,-1.312521 0,-0.815893 0.04677,-0.495363 0.04677,-0.495363 l -2.299335,2.562116 -0.02627,4.296476 c 0,0 -0.02627,0.683231 0.604399,0.670092 0.630674,-0.01315 1.261819,0.447122 1.261819,0.447122 z"
       id="path9"
       inkscape:label="lip" /><path
       style="display:inline;fill:#765198;fill-opacity:1;stroke:#000000;stroke-width:0.264583;stroke-opacity:1"
       d="m 5.0319667,11.563532 1.565034,-3.11938 0.881195,-0.998685 v 0 l 0.427853,-0.969315 0.600207,-1.145553 32.4571873,0.146865 0.20562,0.264359 0.381847,0.822449 0.205607,0.499343 0.21941,1.210257 1.043644,1.433327 0.323097,0.616836 0.33671,1.101821 0.13584,1.628007 c 0,0 0.134707,0.946984 -0.589157,1.045769 -0.723867,0.09878 -2.327188,0.206208 -2.327188,0.206208 H 37.629021 L 7.9152347,13.841769 c -1.964977,-0.0033 -2.971341,-0.04184 -3.137633,-0.267432 -0.30708,-0.416586 0.254365,-2.010805 0.254365,-2.010805 z"
       id="path10"
       inkscape:label="lid"
       sodipodi:nodetypes="cccccccccccccccscccsc" /><path
       style="fill:#553a6f;fill-opacity:1;stroke:#000000;stroke-width:0.265112;stroke-dasharray:none;stroke-opacity:1"
       d="m 12.966514,9.629004 22.710239,0.217948 -0.392307,1.961547 -21.751263,-0.04359 z"
       id="path11"
       inkscape:label="handle" /></g></svg>
